Coordinates
version=1
nRows=14
nColumns=63
inDegrees=yes

Units are S.I. units (second, meters, Newtons, ...)
If the header above contains a line with 'inDegrees', this indicates whether rotational values are in degrees (yes) or radians (no).

endheader
time	pelvis_tilt	pelvis_list	pelvis_rotation	pelvis_tx	pelvis_ty	pelvis_tz	hip_flexion_r	hip_adduction_r	hip_rotation_r	knee_angle_r	knee_angle_r_beta	ankle_angle_r	subtalar_angle_r	mtp_angle_r	hip_flexion_l	hip_adduction_l	hip_rotation_l	knee_angle_l	knee_angle_l_beta	ankle_angle_l	subtalar_angle_l	mtp_angle_l	L5_S1_Flex_Ext	L5_S1_Lat_Bending	L5_S1_axial_rotation	L4_L5_Flex_Ext	L4_L5_Lat_Bending	L4_L5_axial_rotation	L3_L4_Flex_Ext	L3_L4_Lat_Bending	L3_L4_axial_rotation	L2_L3_Flex_Ext	L2_L3_Lat_Bending	L2_L3_axial_rotation	L1_L2_Flex_Ext	L1_L2_Lat_Bending	L1_L2_axial_rotation	L1_T12_Flex_Ext	L1_T12_Lat_Bending	L1_T12_axial_rotation	Abs_r3	Abs_r2	Abs_r1	Abs_t1	Abs_t2	neck_flexion	neck_bending	neck_rotation	arm_flex_r	arm_add_r	arm_rot_r	elbow_flex_r	pro_sup_r	wrist_flex_r	wrist_dev_r	arm_flex_l	arm_add_l	arm_rot_l	elbow_flex_l	pro_sup_l	wrist_flex_l	wrist_dev_l
6.152542	-3.225928	-7.846878	90.448995	0.266949	1.031888	0.297259	-3.409606	-3.031610	9.610334	0.823445	0.014372	30.625203	-17.230957	0.000000	-0.952360	1.650917	23.721858	3.311173	0.057791	33.306439	-14.888798	0.000000	0.341620	-0.066805	-1.305213	0.634423	-0.088851	-1.386788	0.561248	-0.162430	-1.386788	0.390438	-0.162430	-1.142061	0.317229	-0.136229	-1.060485	0.195202	-0.103481	-0.978909	2.440160	-0.755714	-7.259201	0.000000	0.000000	27.752693	4.537089	3.985381	17.380035	3.690131	139.920418	16.319798	65.270868	-19.376012	-2.642488	15.709029	-2.373515	96.700952	25.572215	19.972729	2.468075	-2.940057
6.169492	-3.295522	-7.737138	90.699753	0.266500	1.032098	0.296778	-3.609942	-3.094988	9.368356	0.777793	0.013575	30.741169	-17.224325	0.000000	-1.123686	1.733054	23.952892	3.192580	0.055721	33.295116	-14.986414	0.000000	0.331950	-0.086266	-1.327615	0.616465	-0.114734	-1.410591	0.545361	-0.209748	-1.410591	0.379386	-0.209748	-1.161663	0.308249	-0.175914	-1.078687	0.189677	-0.133626	-0.995711	2.371089	-0.975860	-7.383797	0.000000	0.000000	27.724183	4.706542	3.541219	17.022321	4.742862	151.404329	13.811929	58.552412	-20.362517	-2.985065	15.719314	-2.518569	97.227248	25.604706	19.367167	2.666602	-2.878396
6.186441	-3.399651	-7.672635	90.923699	0.266248	1.032244	0.296441	-3.754669	-3.177765	9.110906	0.734868	0.012826	30.843584	-17.239944	0.000000	-1.218276	1.836504	23.967119	3.096902	0.054051	33.361402	-14.783119	0.000000	0.326794	-0.111893	-1.336246	0.606889	-0.148818	-1.419761	0.536889	-0.272058	-1.419761	0.373493	-0.272058	-1.169215	0.303461	-0.228173	-1.085700	0.186730	-0.173323	-1.002184	2.334255	-1.265760	-7.431799	0.000000	0.000000	27.707302	4.870286	3.013563	16.678960	5.756632	163.010905	11.305743	51.236795	-21.169251	-3.430252	15.766575	-2.644924	97.666317	25.605021	19.428105	2.816078	-2.810943
6.203390	-3.512016	-7.657391	91.156968	0.266112	1.032336	0.296222	-3.843046	-3.253074	8.782475	0.701702	0.012247	30.922257	-17.261328	0.000000	-1.253519	1.938874	24.088457	2.988068	0.052152	33.380057	-14.679553	0.000000	0.326793	-0.140109	-1.339893	0.606888	-0.186345	-1.423636	0.536889	-0.340660	-1.423636	0.373492	-0.340660	-1.172406	0.303460	-0.285710	-1.088663	0.186730	-0.217028	-1.004920	2.334252	-1.584939	-7.452084	0.000000	0.000000	27.701341	5.000313	2.399465	16.368934	6.691705	174.417369	8.879589	43.484873	-21.753303	-3.970462	15.870609	-2.732884	98.209956	25.559586	19.797282	2.932870	-2.837098
6.220339	-3.612954	-7.693963	91.383982	0.266061	1.032365	0.296127	-3.867681	-3.306513	8.408987	0.678468	0.011841	30.970825	-17.294670	0.000000	-1.210885	2.025989	24.181009	2.910943	0.050806	33.403770	-14.508244	0.000000	0.332064	-0.166883	-1.339670	0.616676	-0.221954	-1.423399	0.545548	-0.405758	-1.423399	0.379516	-0.405758	-1.172211	0.308354	-0.340307	-1.088482	0.189741	-0.258501	-1.004752	2.371898	-1.887808	-7.450842	0.000000	0.000000	27.705279	5.124562	1.806941	16.097679	7.505365	185.300501	6.615165	35.484778	-22.077850	-4.567050	15.995624	-2.798766	98.685976	25.521910	20.332113	2.996238	-2.902910
6.237288	-3.707159	-7.756360	91.582234	0.266120	1.032350	0.296143	-3.852183	-3.344421	8.044700	0.670331	0.011699	30.996804	-17.352521	0.000000	-1.127107	2.100432	24.191265	2.862584	0.049962	33.418923	-14.243369	0.000000	0.338393	-0.192715	-1.331030	0.628430	-0.256311	-1.414219	0.555946	-0.468568	-1.414219	0.386750	-0.468568	-1.164651	0.314232	-0.392985	-1.081462	0.193358	-0.298516	-0.998272	2.417109	-2.180035	-7.402789	0.000000	0.000000	27.721452	5.221158	1.219216	15.868766	8.179464	195.108069	4.570155	27.417537	-22.086849	-5.306805	16.127824	-2.863327	99.012122	25.511414	21.059927	3.016373	-2.989057
6.254237	-3.759720	-7.865671	91.780460	0.266199	1.032258	0.296294	-3.773874	-3.334679	7.647637	0.675407	0.011788	30.986488	-17.410538	0.000000	-0.960644	2.139314	24.186073	2.887190	0.050391	33.437677	-13.951669	0.000000	0.349442	-0.211752	-1.330293	0.648948	-0.281630	-1.413436	0.574098	-0.514853	-1.413436	0.399377	-0.514853	-1.164006	0.324491	-0.431804	-1.080863	0.199671	-0.328003	-0.997719	2.496027	-2.395377	-7.398688	0.000000	0.000000	27.746517	5.343461	0.790740	15.693084	8.730732	203.991425	2.775500	19.895812	-21.983572	-5.992630	16.239126	-2.924758	99.147624	25.549538	21.680743	2.977752	-3.007071
6.271186	-3.774235	-7.983143	92.011248	0.266254	1.032122	0.296574	-3.678294	-3.280958	7.206512	0.694658	0.012124	30.947979	-17.468163	0.000000	-0.754443	2.146286	24.178760	2.983576	0.052073	33.449661	-13.631769	0.000000	0.359051	-0.224902	-1.340624	0.666794	-0.299119	-1.424412	0.589885	-0.546826	-1.424412	0.410360	-0.546826	-1.173046	0.333415	-0.458620	-1.089257	0.205162	-0.348373	-1.005468	2.564666	-2.544134	-7.456146	0.000000	0.000000	27.781997	5.505375	0.515670	15.563004	9.147956	211.308619	1.280704	13.276218	-21.789439	-6.709814	16.336880	-2.979842	99.152496	25.606984	22.242312	2.878293	-3.045609
6.288136	-3.740835	-8.122146	92.210205	0.266322	1.031894	0.296946	-3.543651	-3.180129	6.780782	0.728504	0.012715	30.877219	-17.519224	0.000000	-0.503394	2.113856	24.145715	3.149400	0.054967	33.481565	-13.316823	0.000000	0.371279	-0.229868	-1.353039	0.689503	-0.305724	-1.437604	0.609975	-0.558901	-1.437604	0.424335	-0.558901	-1.183909	0.344770	-0.468747	-1.099344	0.212149	-0.356066	-1.014779	2.652012	-2.600313	-7.525196	0.000000	0.000000	27.825096	5.658689	0.373820	15.443975	9.438265	217.165235	0.116250	7.813802	-21.537646	-7.259138	16.399453	-3.020726	99.012679	25.687152	22.723229	2.722795	-3.058519
6.305085	-3.669815	-8.251051	92.432387	0.266325	1.031611	0.297386	-3.416967	-3.042048	6.325448	0.766217	0.013373	30.780383	-17.554459	0.000000	-0.250096	2.049376	24.137129	3.352014	0.058504	33.514510	-13.024969	0.000000	0.381648	-0.228322	-1.376284	0.708759	-0.303669	-1.462302	0.627010	-0.555143	-1.462302	0.436186	-0.555143	-1.204248	0.354399	-0.465595	-1.118231	0.218074	-0.353671	-1.032213	2.726075	-2.582828	-7.654478	0.000000	0.000000	27.872461	5.851413	0.375731	15.358010	9.611592	221.083643	-0.669845	4.248263	-21.400825	-7.650661	16.450413	-3.029548	98.921234	25.740161	23.002101	2.515582	-3.150518
6.322034	-3.571211	-8.373031	92.615254	0.266328	1.031258	0.297832	-3.290339	-2.883098	5.922396	0.805453	0.014058	30.660299	-17.581647	0.000000	-0.020646	1.962977	24.243217	3.537355	0.061738	33.512457	-12.942950	0.000000	0.392490	-0.220417	-1.401044	0.728893	-0.293155	-1.488609	0.644822	-0.535923	-1.488609	0.448577	-0.535923	-1.225913	0.364466	-0.449475	-1.138348	0.224269	-0.341426	-1.050783	2.803516	-2.493405	-7.792184	0.000000	0.000000	27.920317	6.032010	0.534780	15.304726	9.700644	223.369621	-1.089023	2.348084	-21.373068	-7.875130	16.472870	-3.018278	98.879855	25.787869	23.044764	2.279020	-3.317703
6.338983	-3.455237	-8.488458	92.769918	0.266299	1.030845	0.298259	-3.167955	-2.716105	5.572235	0.841528	0.014687	30.526792	-17.602479	0.000000	0.194971	1.862995	24.371160	3.713053	0.064805	33.529267	-12.929907	0.000000	0.404316	-0.207394	-1.427670	0.750855	-0.275834	-1.516899	0.664251	-0.504258	-1.516899	0.462093	-0.504258	-1.249211	0.375448	-0.422918	-1.159981	0.231026	-0.321253	-1.070752	2.887988	-2.346083	-7.940269	0.000000	0.000000	27.966941	6.178137	0.820846	15.278329	9.686055	223.767958	-1.075862	2.319381	-21.424843	-7.897656	16.446348	-2.990963	98.809135	25.833920	22.922655	2.018516	-3.517150
6.355932	-3.337804	-8.589947	92.908861	0.266236	1.030406	0.298664	-3.058460	-2.556215	5.263302	0.874297	0.015259	30.394100	-17.600341	0.000000	0.383351	1.766144	24.537410	3.856678	0.067312	33.570619	-12.983429	0.000000	0.415737	-0.191567	-1.453886	0.772066	-0.254785	-1.544754	0.683015	-0.465777	-1.544754	0.475146	-0.465777	-1.272150	0.386054	-0.390644	-1.181282	0.237552	-0.296738	-1.090414	2.969569	-2.167049	-8.086076	0.000000	0.000000	28.010725	6.285816	1.235500	15.292070	9.561079	221.959693	-0.586079	4.367063	-21.533215	-7.725162	16.408168	-2.953446	98.861160	25.886936	22.576583	1.763259	-3.791891
6.372881	-3.233156	-8.691998	93.052517	0.266121	1.029952	0.299065	-2.948487	-2.419099	4.990898	0.901354	0.015732	30.267618	-17.586970	0.000000	0.587359	1.692133	24.585218	4.015106	0.070077	33.714543	-12.876863	0.000000	0.428899	-0.175301	-1.481687	0.796508	-0.233151	-1.574292	0.704638	-0.426227	-1.574292	0.490189	-0.426227	-1.296476	0.398276	-0.357474	-1.203870	0.245073	-0.271542	-1.111265	3.063583	-1.983043	-8.240697	0.000000	0.000000	28.051371	6.341529	1.735145	15.362283	9.331845	217.713399	0.405535	8.709556	-21.743279	-7.326683	16.315286	-2.936148	98.751098	25.976048	22.279553	1.522336	-4.012562
